<?xml version="1.0" standalone="no"?>
<!DOCTYPE svg PUBLIC "-//W3C//DTD SVG 20010904//EN"
 "http://www.w3.org/TR/2001/REC-SVG-20010904/DTD/svg10.dtd">
<svg version="1.0" xmlns="http://www.w3.org/2000/svg"
 width="2048.000000pt" height="2048.000000pt" viewBox="0 0 2048.000000 2048.000000"
 preserveAspectRatio="xMidYMid meet">

<g transform="translate(0.000000,2048.000000) scale(0.100000,-0.100000)"
fill="#000000" stroke="none">
<path d="M9905 19210 c-1494 -61 -2882 -463 -4170 -1209 -902 -522 -1755
-1251 -2440 -2086 -673 -820 -1216 -1809 -1560 -2840 -597 -1794 -602 -3789
-13 -5595 928 -2845 3230 -5049 6113 -5854 643 -179 1267 -279 1980 -317 241
-13 826 -7 1060 11 785 59 1500 203 2235 450 734 246 1448 597 2095 1029 1502
1003 2659 2420 3339 4089 316 774 528 1630 610 2462 35 351 40 475 40 915 0
454 -10 641 -50 995 -217 1920 -1034 3695 -2350 5105 -746 799 -1589 1428
-2564 1913 -866 432 -1748 708 -2700 846 -502 73 -1131 106 -1625 86z m671
-20 c2500 -97 4806 -1207 6440 -3100 740 -857 1321 -1870 1683 -2934 343
-1007 497 -1993 478 -3056 -16 -914 -151 -1728 -427 -2592 -735 -2294 -2413
-4226 -4595 -5289 -1015 -494 -2052 -776 -3225 -876 -259 -22 -1056 -25 -1310
-5 -1252 99 -2344 400 -3415 942 -1367 693 -2553 1744 -3395 3010 -255 382
-404 643 -604 1051 -818 1670 -1089 3550 -780 5404 224 1337 758 2621 1549
3720 672 933 1521 1734 2490 2350 1513 961 3311 1445 5111 1375z"/>
<path d="M4771 15773 c276 -291 506 -531 609 -638 69 -71 220 -229 335 -350
115 -121 268 -281 340 -355 72 -74 286 -297 475 -495 190 -198 437 -457 550
-575 113 -118 360 -377 550 -575 189 -198 400 -418 470 -490 69 -71 222 -231
340 -355 118 -123 328 -342 465 -485 138 -143 283 -298 322 -345 240 -287 404
-646 475 -1040 20 -108 23 -159 23 -370 -1 -263 -13 -367 -70 -577 -78 -291
-236 -595 -432 -834 -74 -90 -244 -256 -333 -326 -250 -195 -594 -358 -890
-422 -328 -70 -673 -68 -985 6 -907 214 -1571 952 -1696 1883 -19 139 -16 440
5 580 83 553 349 1031 772 1391 263 223 644 407 974 469 63 12 123 25 133 29
14 5 -27 53 -209 244 -124 130 -232 237 -240 237 -24 0 -219 -68 -331 -116
-325 -137 -620 -338 -873 -593 -440 -442 -694 -953 -792 -1591 -25 -163 -30
-533 -9 -695 69 -540 263 -1001 599 -1430 72 -91 337 -356 427 -426 516 -404
1103 -609 1740 -609 641 0 1241 210 1745 610 125 99 330 302 424 420 92 115
224 315 284 429 l50 93 53 -98 c199 -370 517 -722 869 -966 338 -233 748 -395
1165 -460 189 -29 525 -35 715 -14 302 35 598 117 854 235 l89 41 -108 113
c-60 61 -155 159 -211 216 l-102 105 -124 -41 c-693 -230 -1455 -105 -2032
332 -483 366 -783 887 -867 1505 -15 114 -15 412 0 530 87 659 432 1213 991
1590 94 64 329 180 450 224 256 92 482 130 760 130 217 0 345 -15 542 -65 779
-195 1398 -809 1598 -1582 68 -267 64 -166 70 -1529 l5 -1237 279 -290 c153
-160 281 -291 285 -291 3 0 4 694 1 1542 -6 1692 -2 1583 -66 1863 -242 1061
-1088 1888 -2152 2104 -81 17 -190 36 -242 43 -127 16 -508 16 -640 0 -862
-107 -1602 -580 -2055 -1313 -31 -49 -70 -119 -87 -154 -18 -36 -35 -65 -38
-65 -3 0 -31 47 -62 105 -163 298 -242 392 -928 1105 -168 175 -347 361 -739
770 -261 272 -524 547 -586 610 -112 116 -1150 1198 -1389 1449 -71 75 -158
165 -192 201 l-63 65 2496 5 2497 5 -230 240 c-127 132 -248 259 -268 283
l-38 42 -2896 0 -2896 0 45 -47z"/>
<path d="M9789 7248 c-124 -128 -243 -253 -266 -278 l-42 -45 269 -3 c149 -1
391 -1 539 0 l269 3 -263 275 c-145 151 -267 276 -273 278 -5 1 -110 -102
-233 -230z"/>
<path d="M5950 5921 l0 -451 153 0 c251 1 351 28 456 126 138 128 180 329 103
497 -58 127 -137 200 -265 244 -64 23 -93 26 -259 31 l-188 5 0 -452z m378
349 c113 -27 196 -90 244 -188 30 -61 33 -74 33 -162 0 -82 -4 -103 -27 -152
-33 -71 -101 -138 -176 -175 -53 -25 -68 -27 -209 -31 l-153 -4 0 361 0 361
123 0 c67 0 141 -5 165 -10z"/>
<path d="M6835 6358 c-3 -7 -4 -209 -3 -448 l3 -435 313 -3 312 -2 0 45 0 45
-270 0 -270 0 0 160 0 160 270 0 270 0 0 40 0 40 -270 0 -270 0 0 160 0 160
270 0 270 0 0 45 0 45 -310 0 c-239 0 -312 -3 -315 -12z"/>
<path d="M7640 5920 l0 -450 225 0 225 0 0 45 0 45 -185 0 -185 0 0 405 0 405
-40 0 -40 0 0 -450z"/>
<path d="M8117 6364 c-4 -4 -7 -25 -7 -46 l0 -38 105 0 105 0 0 -406 0 -405
43 3 42 3 0 400 0 400 100 5 100 5 0 40 0 40 -241 3 c-132 1 -243 -1 -247 -4z"/>
<path d="M8824 5929 c-104 -243 -190 -445 -192 -450 -2 -5 18 -9 45 -9 l49 0
63 150 64 150 206 0 207 0 65 -147 64 -148 48 -3 c26 -2 47 -1 47 2 0 3 -85
204 -190 448 l-189 443 -49 3 -49 3 -189 -442z m325 126 c44 -107 81 -197 81
-200 0 -3 -77 -5 -171 -5 -94 0 -169 4 -167 9 32 84 165 391 169 391 4 0 43
-88 88 -195z"/>
<path d="M10941 6348 c-5 -13 -90 -214 -190 -447 -100 -232 -181 -425 -181
-428 0 -2 21 -3 48 -1 l47 3 62 145 63 145 207 3 208 2 65 -150 65 -150 48 0
c27 0 47 4 45 9 -1 5 -88 207 -192 450 l-189 441 -49 0 c-41 0 -50 -3 -57 -22z
m143 -285 c43 -104 81 -194 83 -200 4 -10 -33 -13 -167 -13 -137 0 -171 3
-167 13 32 84 163 387 168 387 3 0 40 -84 83 -187z"/>
<path d="M11450 6325 l0 -45 100 0 100 0 2 -402 3 -403 43 -3 42 -3 0 405 0
405 103 3 102 3 0 40 0 40 -247 3 -248 2 0 -45z"/>
<path d="M12020 5920 l0 -450 315 0 315 0 0 45 0 45 -270 0 -270 0 0 160 0
160 270 0 270 0 0 40 0 40 -270 0 -270 0 0 160 0 160 270 0 270 0 0 45 0 45
-315 0 -315 0 0 -450z"/>
<path d="M12825 6358 c-3 -7 -4 -209 -3 -448 l3 -435 228 -3 227 -2 0 45 0 45
-185 0 -185 0 0 405 0 405 -40 0 c-23 0 -43 -5 -45 -12z"/>
<path d="M13380 5920 l0 -450 45 0 45 0 0 450 0 450 -45 0 -45 0 0 -450z"/>
<path d="M13640 5920 l0 -450 313 2 312 3 0 40 0 40 -270 3 -270 2 3 160 3
160 269 0 270 0 0 40 0 40 -270 0 -270 0 0 160 0 160 268 2 267 3 0 40 0 40
-312 3 -313 2 0 -450z"/>
<path d="M14440 5921 l0 -451 45 0 45 0 0 405 0 405 123 0 c138 0 183 -9 227
-47 68 -56 90 -164 51 -241 -39 -76 -95 -104 -219 -112 l-93 -5 151 -202 152
-203 55 0 c43 0 53 3 46 13 -72 92 -225 301 -229 312 -5 11 2 15 27 15 19 0
57 13 85 29 94 55 140 144 132 259 -9 116 -72 203 -177 243 -47 17 -86 22
-238 26 l-183 6 0 -452z"/>
<path d="M9980 5550 l0 -80 45 0 46 0 -3 78 -3 77 -42 2 -43 3 0 -80z"/>
</g>
</svg>
